<svg width="23" height="22" viewBox="0 0 23 22" fill="none" xmlns="http://www.w3.org/2000/svg">
<path d="M20.6555 8.41256C20.5978 8.24274 20.4917 8.09353 20.3502 7.98335C20.2087 7.87316 20.0381 7.80681 19.8593 7.79251L14.6302 7.377L12.3673 2.36798C12.2953 2.20665 12.1781 2.06963 12.0298 1.97344C11.8816 1.87726 11.7087 1.82602 11.532 1.82593C11.3553 1.82583 11.1824 1.87687 11.0341 1.9729C10.8857 2.06892 10.7684 2.20582 10.6961 2.36707L8.43332 7.377L3.20417 7.79251C3.02848 7.80642 2.86052 7.87066 2.72038 7.97754C2.58024 8.08442 2.47386 8.2294 2.41397 8.39516C2.35407 8.56091 2.3432 8.74041 2.38265 8.91218C2.42209 9.08395 2.51019 9.24072 2.6364 9.36373L6.50071 13.1308L5.13403 19.0488C5.09253 19.2279 5.10583 19.4154 5.17221 19.5869C5.23858 19.7584 5.35496 19.9059 5.50625 20.0105C5.65753 20.115 5.83674 20.1716 6.02062 20.173C6.20449 20.1744 6.38454 20.1205 6.5374 20.0183L11.5317 16.6888L16.5261 20.0183C16.6823 20.1221 16.8666 20.1755 17.0541 20.1713C17.2416 20.1672 17.4233 20.1058 17.5748 19.9953C17.7264 19.8848 17.8405 19.7306 17.9017 19.5533C17.963 19.3761 17.9685 19.1843 17.9175 19.0039L16.2399 13.1336L20.4005 9.38941C20.6729 9.14359 20.7729 8.76019 20.6555 8.41256Z" fill="#F3CD03"/>
</svg>
